<svg width="600" height="400" viewBox="0 0 600 400" xmlns="http://www.w3.org/2000/svg">
  <!-- Background gradient -->
  <defs>
    <linearGradient id="bg-gradient" x1="0%" y1="0%" x2="100%" y2="100%">
      <stop offset="0%" stop-color="#f8fafc" />
      <stop offset="100%" stop-color="#f1f5f9" />
    </linearGradient>
  </defs>
  <rect x="0" y="0" width="600" height="400" rx="10" fill="url(#bg-gradient)" />
  
  <!-- CPU Section -->
  <g transform="translate(50, 50)">
    <!-- CPU Chip -->
    <rect x="0" y="0" width="200" height="200" rx="5" fill="#e2e8f0" stroke="#94a3b8" stroke-width="2" />
    
    <!-- CPU Cores -->
    <rect x="20" y="20" width="35" height="35" rx="3" fill="#1e293b" />
    <rect x="65" y="20" width="35" height="35" rx="3" fill="#1e293b" />
    <rect x="110" y="20" width="35" height="35" rx="3" fill="#1e293b" />
    <rect x="155" y="20" width="35" height="35" rx="3" fill="#1e293b" />
    
    <rect x="20" y="65" width="35" height="35" rx="3" fill="#1e293b" />
    <rect x="65" y="65" width="35" height="35" rx="3" fill="#1e293b" />
    <rect x="110" y="65" width="35" height="35" rx="3" fill="#1e293b" />
    <rect x="155" y="65" width="35" height="35" rx="3" fill="#1e293b" />
    
    <rect x="20" y="110" width="35" height="35" rx="3" fill="#1e293b" />
    <rect x="65" y="110" width="35" height="35" rx="3" fill="#1e293b" />
    <rect x="110" y="110" width="35" height="35" rx="3" fill="#1e293b" />
    <rect x="155" y="110" width="35" height="35" rx="3" fill="#1e293b" />
    
    <rect x="20" y="155" width="35" height="35" rx="3" fill="#1e293b" />
    <rect x="65" y="155" width="35" height="35" rx="3" fill="#1e293b" />
    <rect x="110" y="155" width="35" height="35" rx="3" fill="#1e293b" />
    <rect x="155" y="155" width="35" height="35" rx="3" fill="#1e293b" />
    
    <!-- CPU Label -->
    <text x="100" y="230" text-anchor="middle" font-family="Arial" font-size="20" font-weight="bold" fill="#1e293b">CPU</text>
    <text x="100" y="255" text-anchor="middle" font-family="Arial" font-size="14" fill="#64748b">Fewer, more powerful cores</text>
    <text x="100" y="275" text-anchor="middle" font-family="Arial" font-size="14" fill="#64748b">Optimized for serial tasks</text>
  </g>
  
  <!-- GPU Section -->
  <g transform="translate(350, 50)">
    <!-- GPU Chip -->
    <rect x="0" y="0" width="200" height="200" rx="5" fill="#e2e8f0" stroke="#94a3b8" stroke-width="2" />
    
    <!-- GPU Cores (many small cores) -->
    <g>
      <!-- First row -->
      <rect x="10" y="10" width="12" height="12" rx="2" fill="#0f766e" />
      <rect x="27" y="10" width="12" height="12" rx="2" fill="#0f766e" />
      <rect x="44" y="10" width="12" height="12" rx="2" fill="#0f766e" />
      <rect x="61" y="10" width="12" height="12" rx="2" fill="#0f766e" />
      <rect x="78" y="10" width="12" height="12" rx="2" fill="#0f766e" />
      <rect x="95" y="10" width="12" height="12" rx="2" fill="#0f766e" />
      <rect x="112" y="10" width="12" height="12" rx="2" fill="#0f766e" />
      <rect x="129" y="10" width="12" height="12" rx="2" fill="#0f766e" />
      <rect x="146" y="10" width="12" height="12" rx="2" fill="#0f766e" />
      <rect x="163" y="10" width="12" height="12" rx="2" fill="#0f766e" />
      <rect x="180" y="10" width="12" height="12" rx="2" fill="#0f766e" />
      
      <!-- Repeating pattern for multiple rows -->
      <g transform="translate(0, 17)">
        <rect x="10" y="10" width="12" height="12" rx="2" fill="#0f766e" />
        <rect x="27" y="10" width="12" height="12" rx="2" fill="#0f766e" />
        <rect x="44" y="10" width="12" height="12" rx="2" fill="#0f766e" />
        <rect x="61" y="10" width="12" height="12" rx="2" fill="#0f766e" />
        <rect x="78" y="10" width="12" height="12" rx="2" fill="#0f766e" />
        <rect x="95" y="10" width="12" height="12" rx="2" fill="#0f766e" />
        <rect x="112" y="10" width="12" height="12" rx="2" fill="#0f766e" />
        <rect x="129" y="10" width="12" height="12" rx="2" fill="#0f766e" />
        <rect x="146" y="10" width="12" height="12" rx="2" fill="#0f766e" />
        <rect x="163" y="10" width="12" height="12" rx="2" fill="#0f766e" />
        <rect x="180" y="10" width="12" height="12" rx="2" fill="#0f766e" />
      </g>
      
      <g transform="translate(0, 34)">
        <rect x="10" y="10" width="12" height="12" rx="2" fill="#0f766e" />
        <rect x="27" y="10" width="12" height="12" rx="2" fill="#0f766e" />
        <rect x="44" y="10" width="12" height="12" rx="2" fill="#0f766e" />
        <rect x="61" y="10" width="12" height="12" rx="2" fill="#0f766e" />
        <rect x="78" y="10" width="12" height="12" rx="2" fill="#0f766e" />
        <rect x="95" y="10" width="12" height="12" rx="2" fill="#0f766e" />
        <rect x="112" y="10" width="12" height="12" rx="2" fill="#0f766e" />
        <rect x="129" y="10" width="12" height="12" rx="2" fill="#0f766e" />
        <rect x="146" y="10" width="12" height="12" rx="2" fill="#0f766e" />
        <rect x="163" y="10" width="12" height="12" rx="2" fill="#0f766e" />
        <rect x="180" y="10" width="12" height="12" rx="2" fill="#0f766e" />
      </g>
      
      <g transform="translate(0, 51)">
        <rect x="10" y="10" width="12" height="12" rx="2" fill="#0f766e" />
        <rect x="27" y="10" width="12" height="12" rx="2" fill="#0f766e" />
        <rect x="44" y="10" width="12" height="12" rx="2" fill="#0f766e" />
        <rect x="61" y="10" width="12" height="12" rx="2" fill="#0f766e" />
        <rect x="78" y="10" width="12" height="12" rx="2" fill="#0f766e" />
        <rect x="95" y="10" width="12" height="12" rx="2" fill="#0f766e" />
        <rect x="112" y="10" width="12" height="12" rx="2" fill="#0f766e" />
        <rect x="129" y="10" width="12" height="12" rx="2" fill="#0f766e" />
        <rect x="146" y="10" width="12" height="12" rx="2" fill="#0f766e" />
        <rect x="163" y="10" width="12" height="12" rx="2" fill="#0f766e" />
        <rect x="180" y="10" width="12" height="12" rx="2" fill="#0f766e" />
      </g>
      
      <g transform="translate(0, 68)">
        <rect x="10" y="10" width="12" height="12" rx="2" fill="#0f766e" />
        <rect x="27" y="10" width="12" height="12" rx="2" fill="#0f766e" />
        <rect x="44" y="10" width="12" height="12" rx="2" fill="#0f766e" />
        <rect x="61" y="10" width="12" height="12" rx="2" fill="#0f766e" />
        <rect x="78" y="10" width="12" height="12" rx="2" fill="#0f766e" />
        <rect x="95" y="10" width="12" height="12" rx="2" fill="#0f766e" />
        <rect x="112" y="10" width="12" height="12" rx="2" fill="#0f766e" />
        <rect x="129" y="10" width="12" height="12" rx="2" fill="#0f766e" />
        <rect x="146" y="10" width="12" height="12" rx="2" fill="#0f766e" />
        <rect x="163" y="10" width="12" height="12" rx="2" fill="#0f766e" />
        <rect x="180" y="10" width="12" height="12" rx="2" fill="#0f766e" />
      </g>
      
      <g transform="translate(0, 85)">
        <rect x="10" y="10" width="12" height="12" rx="2" fill="#0f766e" />
        <rect x="27" y="10" width="12" height="12" rx="2" fill="#0f766e" />
        <rect x="44" y="10" width="12" height="12" rx="2" fill="#0f766e" />
        <rect x="61" y="10" width="12" height="12" rx="2" fill="#0f766e" />
        <rect x="78" y="10" width="12" height="12" rx="2" fill="#0f766e" />
        <rect x="95" y="10" width="12" height="12" rx="2" fill="#0f766e" />
        <rect x="112" y="10" width="12" height="12" rx="2" fill="#0f766e" />
        <rect x="129" y="10" width="12" height="12" rx="2" fill="#0f766e" />
        <rect x="146" y="10" width="12" height="12" rx="2" fill="#0f766e" />
        <rect x="163" y="10" width="12" height="12" rx="2" fill="#0f766e" />
        <rect x="180" y="10" width="12" height="12" rx="2" fill="#0f766e" />
      </g>
      
      <g transform="translate(0, 102)">
        <rect x="10" y="10" width="12" height="12" rx="2" fill="#0f766e" />
        <rect x="27" y="10" width="12" height="12" rx="2" fill="#0f766e" />
        <rect x="44" y="10" width="12" height="12" rx="2" fill="#0f766e" />
        <rect x="61" y="10" width="12" height="12" rx="2" fill="#0f766e" />
        <rect x="78" y="10" width="12" height="12" rx="2" fill="#0f766e" />
        <rect x="95" y="10" width="12" height="12" rx="2" fill="#0f766e" />
        <rect x="112" y="10" width="12" height="12" rx="2" fill="#0f766e" />
        <rect x="129" y="10" width="12" height="12" rx="2" fill="#0f766e" />
        <rect x="146" y="10" width="12" height="12" rx="2" fill="#0f766e" />
        <rect x="163" y="10" width="12" height="12" rx="2" fill="#0f766e" />
        <rect x="180" y="10" width="12" height="12" rx="2" fill="#0f766e" />
      </g>
      
      <g transform="translate(0, 119)">
        <rect x="10" y="10" width="12" height="12" rx="2" fill="#0f766e" />
        <rect x="27" y="10" width="12" height="12" rx="2" fill="#0f766e" />
        <rect x="44" y="10" width="12" height="12" rx="2" fill="#0f766e" />
        <rect x="61" y="10" width="12" height="12" rx="2" fill="#0f766e" />
        <rect x="78" y="10" width="12" height="12" rx="2" fill="#0f766e" />
        <rect x="95" y="10" width="12" height="12" rx="2" fill="#0f766e" />
        <rect x="112" y="10" width="12" height="12" rx="2" fill="#0f766e" />
        <rect x="129" y="10" width="12" height="12" rx="2" fill="#0f766e" />
        <rect x="146" y="10" width="12" height="12" rx="2" fill="#0f766e" />
        <rect x="163" y="10" width="12" height="12" rx="2" fill="#0f766e" />
        <rect x="180" y="10" width="12" height="12" rx="2" fill="#0f766e" />
      </g>
      
      <g transform="translate(0, 136)">
        <rect x="10" y="10" width="12" height="12" rx="2" fill="#0f766e" />
        <rect x="27" y="10" width="12" height="12" rx="2" fill="#0f766e" />
        <rect x="44" y="10" width="12" height="12" rx="2" fill="#0f766e" />
        <rect x="61" y="10" width="12" height="12" rx="2" fill="#0f766e" />
        <rect x="78" y="10" width="12" height="12" rx="2" fill="#0f766e" />
        <rect x="95" y="10" width="12" height="12" rx="2" fill="#0f766e" />
        <rect x="112" y="10" width="12" height="12" rx="2" fill="#0f766e" />
        <rect x="129" y="10" width="12" height="12" rx="2" fill="#0f766e" />
        <rect x="146" y="10" width="12" height="12" rx="2" fill="#0f766e" />
        <rect x="163" y="10" width="12" height="12" rx="2" fill="#0f766e" />
        <rect x="180" y="10" width="12" height="12" rx="2" fill="#0f766e" />
      </g>
    </g>
    
    <!-- GPU Label -->
    <text x="100" y="230" text-anchor="middle" font-family="Arial" font-size="20" font-weight="bold" fill="#0f766e">GPU</text>
    <text x="100" y="255" text-anchor="middle" font-family="Arial" font-size="14" fill="#64748b">Many parallel compute units</text>
    <text x="100" y="275" text-anchor="middle" font-family="Arial" font-size="14" fill="#64748b">Optimized for data parallelism</text>
  </g>
  
  <!-- Title and Info -->
  <text x="300" y="30" text-anchor="middle" font-family="Arial" font-size="22" font-weight="bold" fill="#0f172a">CPU vs GPU Architecture</text>
</svg>
